<svg
  width="87"
  height="104"
  viewBox="0 0 87 104"
  xmlns="http://www.w3.org/2000/svg"
>
  <title>Plan Icon</title>
  <g fill="none" fill-rule="evenodd">
    <g fill-rule="nonzero">
      <!-- Gray secondary element (shield outline) -->
      <path d="M86.9078384,26.7231437 C86.8021324,23.9632559 86.8021324,21.3095177 86.8021324,18.7619291 C86.8021324,16.745088 85.2165426,15.1528451 83.2081289,15.1528451 C67.6693491,15.0466956 55.8302787,10.5884154 45.9996221,1.0349579 C44.6254442,-0.344985966 42.2999126,-0.344985966 40.9257348,1.0349579 C31.0950781,10.5884154 19.2560077,15.0466956 3.82293387,15.0466956 C1.81452015,15.0466956 0.228930371,16.6389385 0.228930371,18.6557795 C0.228930371,21.2033682 0.228930371,23.8571064 0.123224386,26.7231437 C-0.405305542,52.9420771 -1.14524744,88.714468 42.2999126,103.787701 C42.7227365,103.89385 43.0398545,104 43.4626784,104 C43.8855023,104 44.3083263,103.89385 44.6254442,103.787701 C88.0706042,88.714468 87.3306624,52.9420771 86.9078384,26.7231437 Z M43.113642,98.4633834 C4.21175749,84.2578863 4.76434108,53.1833616 5.31692467,25.7711915 C5.31692467,24.1064848 5.42744138,22.5527586 5.42744138,20.9990323 C20.5682317,20.2221692 32.7250706,15.6719709 43.113642,6.57157438 C53.5022134,15.6719709 65.6590523,20.3331496 80.7998426,20.8880519 C80.7998426,22.4417781 80.7998426,23.9955043 80.9103593,25.660211 C81.4629429,53.1833616 82.0155265,84.2578863 43.113642,98.4633834 Z" fill="#CBD2DF" />

      <!-- Blue primary elements (clipboard with checkmarks) -->
      <g transform="translate(30.5, 30) scale(0.75)" fill="#005B94">
        <!-- Clipboard top -->
        <path d="M27,0 L24,0 C24,0 24,0 24,0 C24,0 23,0 22,0 L11,0 C10,0 9,0 9,0 C9,0 9,0 9,0 L6,0 C5,0 4,1 4,2 L4,5 L29,5 L29,2 C29,1 28,0 27,0 Z" />

        <!-- Clipboard body -->
        <path d="M31,7 L2,7 C1,7 0,8 0,9 L0,52 C0,53 1,54 2,54 L31,54 C32,54 33,53 33,52 L33,9 C33,8 32,7 31,7 Z M28,48 L5,48 L5,11 L28,11 L28,48 Z" />

        <!-- Checkmark 1 -->
        <path d="M11,20 L9,22 L13,26 L23,16 L21,14 L13,22 L11,20 Z" />

        <!-- Checkmark 2 -->
        <path d="M11,30 L9,32 L13,36 L23,26 L21,24 L13,32 L11,30 Z" />

        <!-- Checkmark 3 -->
        <path d="M11,40 L9,42 L13,46 L23,36 L21,34 L13,42 L11,40 Z" />
      </g>
    </g>
  </g>
</svg>
